<svg width="50" height="20" viewBox="0 0 50 20" fill="none" xmlns="http://www.w3.org/2000/svg">
<path d="M30.6393 9.56527C31.3597 9.56527 31.9436 8.98126 31.9436 8.26089C31.9436 7.54052 31.3597 6.9566 30.6393 6.9566C29.919 6.9566 29.335 7.54052 29.335 8.26089C29.335 8.98126 29.919 9.56527 30.6393 9.56527Z" fill="black"/>
<path d="M30.6393 6.08697C31.3597 6.08697 31.9436 5.50296 31.9436 4.7826C31.9436 4.06223 31.3597 3.47827 30.6393 3.47827C29.919 3.47827 29.335 4.06223 29.335 4.7826C29.335 5.50296 29.919 6.08697 30.6393 6.08697Z" fill="black"/>
<path d="M44.5534 9.56527C45.2738 9.56527 45.8577 8.98126 45.8577 8.26089C45.8577 7.54052 45.2738 6.9566 44.5534 6.9566C43.833 6.9566 43.249 7.54052 43.249 8.26089C43.249 8.98126 43.833 9.56527 44.5534 9.56527Z" fill="black"/>
<path d="M30.6393 13.0435C31.3597 13.0435 31.9436 12.4595 31.9436 11.7391C31.9436 11.0188 31.3597 10.4348 30.6393 10.4348C29.919 10.4348 29.335 11.0188 29.335 11.7391C29.335 12.4595 29.919 13.0435 30.6393 13.0435Z" fill="black"/>
<path d="M34.1179 13.0435C34.8382 13.0435 35.4222 12.4595 35.4222 11.7391C35.4222 11.0188 34.8382 10.4348 34.1179 10.4348C33.3975 10.4348 32.8135 11.0188 32.8135 11.7391C32.8135 12.4595 33.3975 13.0435 34.1179 13.0435Z" fill="black"/>
<path d="M44.5534 13.0435C45.2738 13.0435 45.8577 12.4595 45.8577 11.7391C45.8577 11.0188 45.2738 10.4348 44.5534 10.4348C43.833 10.4348 43.249 11.0188 43.249 11.7391C43.249 12.4595 43.833 13.0435 44.5534 13.0435Z" fill="black"/>
<path d="M34.1179 16.5217C34.8382 16.5217 35.4222 15.9378 35.4222 15.2174C35.4222 14.497 34.8382 13.913 34.1179 13.913C33.3975 13.913 32.8135 14.497 32.8135 15.2174C32.8135 15.9378 33.3975 16.5217 34.1179 16.5217Z" fill="black"/>
<path d="M37.5963 16.5217C38.3167 16.5217 38.9007 15.9378 38.9007 15.2174C38.9007 14.497 38.3167 13.913 37.5963 13.913C36.8759 13.913 36.292 14.497 36.292 15.2174C36.292 15.9378 36.8759 16.5217 37.5963 16.5217Z" fill="black"/>
<path d="M41.0739 16.5218C41.7943 16.5218 42.3783 15.9378 42.3783 15.2175C42.3783 14.4971 41.7943 13.9131 41.0739 13.9131C40.3535 13.9131 39.7695 14.4971 39.7695 15.2175C39.7695 15.9378 40.3535 16.5218 41.0739 16.5218Z" fill="black"/>
<path d="M37.5963 2.6087C38.3167 2.6087 38.9007 2.02472 38.9007 1.30434C38.9007 0.583974 38.3167 0 37.5963 0C36.8759 0 36.292 0.583974 36.292 1.30434C36.292 2.02472 36.8759 2.6087 37.5963 2.6087Z" fill="black"/>
<path d="M34.1179 2.6087C34.8382 2.6087 35.4222 2.02472 35.4222 1.30434C35.4222 0.583974 34.8382 0 34.1179 0C33.3975 0 32.8135 0.583974 32.8135 1.30434C32.8135 2.02472 33.3975 2.6087 34.1179 2.6087Z" fill="black"/>
<path d="M41.0739 2.6087C41.7943 2.6087 42.3783 2.02472 42.3783 1.30434C42.3783 0.583974 41.7943 0 41.0739 0C40.3535 0 39.7695 0.583974 39.7695 1.30434C39.7695 2.02472 40.3535 2.6087 41.0739 2.6087Z" fill="black"/>
<path d="M41.0739 6.08697C41.7943 6.08697 42.3783 5.50296 42.3783 4.7826C42.3783 4.06223 41.7943 3.47827 41.0739 3.47827C40.3535 3.47827 39.7695 4.06223 39.7695 4.7826C39.7695 5.50296 40.3535 6.08697 41.0739 6.08697Z" fill="black"/>
<path d="M44.5534 16.5217C45.2738 16.5217 45.8577 15.9378 45.8577 15.2174C45.8577 14.497 45.2738 13.913 44.5534 13.913C43.833 13.913 43.249 14.497 43.249 15.2174C43.249 15.9378 43.833 16.5217 44.5534 16.5217Z" fill="black"/>
<path d="M44.5534 6.08697C45.2738 6.08697 45.8577 5.50296 45.8577 4.7826C45.8577 4.06223 45.2738 3.47827 44.5534 3.47827C43.833 3.47827 43.249 4.06223 43.249 4.7826C43.249 5.50296 43.833 6.08697 44.5534 6.08697Z" fill="black"/>
<path d="M48.0309 20C48.7512 20 49.3352 19.416 49.3352 18.6956C49.3352 17.9753 48.7512 17.3914 48.0309 17.3914C47.3105 17.3914 46.7266 17.9753 46.7266 18.6956C46.7266 19.416 47.3105 20 48.0309 20Z" fill="black"/>
<path d="M0.665039 0.792847H3.27172V14.8088H11.0677V17.3657H0.665039V0.792847Z" fill="black"/>
<path d="M7.1709 0.792847H9.77758V4.62828H11.0568V7.16154H12.3601V10.9971H13.6635V13.5303H16.2702V10.9971H17.5494V7.16154H18.8527V4.62828H20.1561V0.792847H22.7628V4.62828H21.4594V7.16154H20.1561V10.9971H18.8527V13.5303H17.5735V16.0872H16.2702V17.3657H13.6635V16.0872H12.3601V13.5303H11.0568V10.9971H9.75345V7.16154H8.47424V4.62828H7.1709V0.792847Z" fill="black"/>
</svg>
