<svg width="1440" height="718" viewBox="0 0 1440 718" fill="none" xmlns="http://www.w3.org/2000/svg">
<g clip-path="url(#clip0_652_449)">
<rect width="1440" height="718" transform="matrix(-1 0 0 1 1440 0)"/>
<rect width="1440" height="718" transform="matrix(-1 0 0 1 1440 0)" fill="url(#paint0_radial_652_449)" fill-opacity="0.08"/>
<g clip-path="url(#clip1_652_449)">
<rect width="1321" height="467" transform="matrix(-1 0 0 1 1376 -1)" fill="url(#paint1_radial_652_449)" fill-opacity="0.12"/>
<path d="M1302.34 -1H1380V76.8333M1302.34 -1H1224.68M1302.34 -1V76.8333M1224.68 -1H1147.01M1224.68 -1V76.8333M1147.01 -1H1069.35M1147.01 -1V76.8333M1069.35 -1H991.688M1069.35 -1V76.8333M991.688 -1H914.026M991.688 -1V76.8333M914.026 -1H836.363M914.026 -1V76.8333M836.363 -1H758.701M836.363 -1V76.8333M758.701 -1H681.039M758.701 -1V76.8333M681.039 -1H603.376M681.039 -1V76.8333M603.376 -1H525.714M603.376 -1V76.8333M525.714 -1H448.052M525.714 -1V76.8333M448.052 -1H370.389M448.052 -1V76.8333M370.389 -1H292.727M370.389 -1V76.8333M292.727 -1H215.064M292.727 -1V76.8333M215.064 -1H137.402M215.064 -1V76.8333M137.402 -1H59.7396V76.8333M137.402 -1V76.8333M1302.34 76.8333H1380M1302.34 76.8333H1224.68M1302.34 76.8333V154.667M1380 76.8333V154.667M1224.68 76.8333H1147.01M1224.68 76.8333V154.667M1147.01 76.8333H1069.35M1147.01 76.8333V154.667M1069.35 76.8333H991.688M1069.35 76.8333V154.667M991.688 76.8333H914.026M991.688 76.8333V154.667M914.026 76.8333H836.363M914.026 76.8333V154.667M836.363 76.8333H758.701M836.363 76.8333V154.667M758.701 76.8333H681.039M758.701 76.8333V154.667M681.039 76.8333H603.376M681.039 76.8333V154.667M603.376 76.8333H525.714M603.376 76.8333V154.667M525.714 76.8333H448.052M525.714 76.8333V154.667M448.052 76.8333H370.389M448.052 76.8333V154.667M370.389 76.8333H292.727M370.389 76.8333V154.667M292.727 76.8333H215.064M292.727 76.8333V154.667M215.064 76.8333H137.402M215.064 76.8333V154.667M137.402 76.8333H59.7396M137.402 76.8333V154.667M59.7396 76.8333V154.667M1302.34 154.667H1380M1302.34 154.667H1224.68M1302.34 154.667V232.5M1380 154.667V232.5M1224.68 154.667H1147.01M1224.68 154.667V232.5M1147.01 154.667H1069.35M1147.01 154.667V232.5M1069.35 154.667H991.688M1069.35 154.667V232.5M991.688 154.667H914.026M991.688 154.667V232.5M914.026 154.667H836.363M914.026 154.667V232.5M836.363 154.667H758.701M836.363 154.667V232.5M758.701 154.667H681.039M758.701 154.667V232.5M681.039 154.667H603.376M681.039 154.667V232.5M603.376 154.667H525.714M603.376 154.667V232.5M525.714 154.667H448.052M525.714 154.667V232.5M448.052 154.667H370.389M448.052 154.667V232.5M370.389 154.667H292.727M370.389 154.667V232.5M292.727 154.667H215.064M292.727 154.667V232.5M215.064 154.667H137.402M215.064 154.667V232.5M137.402 154.667H59.7396M137.402 154.667V232.5M59.7396 154.667V232.5M1302.34 232.5H1380M1302.34 232.5H1224.68M1302.34 232.5V310.333M1380 232.5V310.333M1224.68 232.5H1147.01M1224.68 232.5V310.333M1147.01 232.5H1069.35M1147.01 232.5V310.333M1069.35 232.5H991.688M1069.35 232.5V310.333M991.688 232.5H914.026M991.688 232.5V310.333M914.026 232.5H836.363M914.026 232.5V310.333M836.363 232.5H758.701M836.363 232.5V310.333M758.701 232.5H681.039M758.701 232.5V310.333M681.039 232.5H603.376M681.039 232.5V310.333M603.376 232.5H525.714M603.376 232.5V310.333M525.714 232.5H448.052M525.714 232.5V310.333M448.052 232.5H370.389M448.052 232.5V310.333M370.389 232.5H292.727M370.389 232.5V310.333M292.727 232.5H215.064M292.727 232.5V310.333M215.064 232.5H137.402M215.064 232.5V310.333M137.402 232.5H59.7396M137.402 232.5V310.333M59.7396 232.5V310.333M1302.34 310.333H1380M1302.34 310.333H1224.68M1302.34 310.333V388.167M1380 310.333V388.167M1224.68 310.333H1147.01M1224.68 310.333V388.167M1147.01 310.333H1069.35M1147.01 310.333V388.167M1069.35 310.333H991.688M1069.35 310.333V388.167M991.688 310.333H914.026M991.688 310.333V388.167M914.026 310.333H836.363M914.026 310.333V388.167M836.363 310.333H758.701M836.363 310.333V388.167M758.701 310.333H681.039M758.701 310.333V388.167M681.039 310.333H603.376M681.039 310.333V388.167M603.376 310.333H525.714M603.376 310.333V388.167M525.714 310.333H448.052M525.714 310.333V388.167M448.052 310.333H370.389M448.052 310.333V388.167M370.389 310.333H292.727M370.389 310.333V388.167M292.727 310.333H215.064M292.727 310.333V388.167M215.064 310.333H137.402M215.064 310.333V388.167M137.402 310.333H59.7396M137.402 310.333V388.167M59.7396 310.333V388.167M1302.34 388.167H1380M1302.34 388.167H1224.68M1302.34 388.167V466M1380 388.167V466H1302.34M1224.68 388.167H1147.01M1224.68 388.167V466M1147.01 388.167H1069.35M1147.01 388.167V466M1069.35 388.167H991.688M1069.35 388.167V466M991.688 388.167H914.026M991.688 388.167V466M914.026 388.167H836.363M914.026 388.167V466M836.363 388.167H758.701M836.363 388.167V466M758.701 388.167H681.039M758.701 388.167V466M681.039 388.167H603.376M681.039 388.167V466M603.376 388.167H525.714M603.376 388.167V466M525.714 388.167H448.052M525.714 388.167V466M448.052 388.167H370.389M448.052 388.167V466M370.389 388.167H292.727M370.389 388.167V466M292.727 388.167H215.064M292.727 388.167V466M215.064 388.167H137.402M215.064 388.167V466M137.402 388.167H59.7396M137.402 388.167V466M59.7396 388.167V466H137.402M1302.34 466H1224.68M1224.68 466H1147.01M1147.01 466H1069.35M1069.35 466H991.688M991.688 466H914.026M914.026 466H836.363M836.363 466H758.701M758.701 466H681.039M681.039 466H603.376M603.376 466H525.714M525.714 466H448.052M448.052 466H370.389M370.389 466H292.727M292.727 466H215.064M215.064 466H137.402" stroke="url(#paint2_radial_652_449)" stroke-opacity="0.05"/>
</g>
</g>
<defs>
<radialGradient id="paint0_radial_652_449" cx="0" cy="0" r="1" gradientUnits="userSpaceOnUse" gradientTransform="translate(720) rotate(90) scale(307.543 616.8)">
<stop stop-color="white"/>
<stop offset="1" stop-color="white" stop-opacity="0"/>
</radialGradient>
<radialGradient id="paint1_radial_652_449" cx="0" cy="0" r="1" gradientUnits="userSpaceOnUse" gradientTransform="translate(660.5 -28.9095) rotate(90) scale(239.43 677.275)">
<stop stop-color="white" stop-opacity="0.25"/>
<stop offset="1" stop-color="white" stop-opacity="0"/>
</radialGradient>
<radialGradient id="paint2_radial_652_449" cx="0" cy="0" r="1" gradientUnits="userSpaceOnUse" gradientTransform="translate(719.87 23.9466) rotate(90) scale(441.056 661.126)">
<stop stop-color="white"/>
<stop offset="1" stop-color="white" stop-opacity="0"/>
</radialGradient>
<clipPath id="clip0_652_449">
<rect width="1440" height="718" fill="white" transform="matrix(-1 0 0 1 1440 0)"/>
</clipPath>
<clipPath id="clip1_652_449">
<rect width="1321" height="467" fill="white" transform="matrix(-1 0 0 1 1376 -1)"/>
</clipPath>
</defs>
</svg>
