<svg width="1440" height="153" viewBox="0 0 1440 153" fill="none" xmlns="http://www.w3.org/2000/svg">
<g filter="url(#filter0_dddd_645_386)">
<path d="M581.744 122.5H31.25C13.9911 122.5 0 136.491 0 153.75C0 171.009 13.9911 185 31.25 185H1408.75C1426.01 185 1440 171.009 1440 153.75C1440 136.491 1426.01 122.5 1408.75 122.5H856.972C847.735 122.5 838.88 118.81 832.377 112.25C825.873 105.69 817.019 102 807.782 102H630.934C621.697 102 612.843 105.69 606.339 112.25C599.836 118.81 590.981 122.5 581.744 122.5Z" fill="#181818"/>
<path d="M581.744 122.5H31.25C13.9911 122.5 0 136.491 0 153.75C0 171.009 13.9911 185 31.25 185H1408.75C1426.01 185 1440 171.009 1440 153.75C1440 136.491 1426.01 122.5 1408.75 122.5H856.972C847.735 122.5 838.88 118.81 832.377 112.25C825.873 105.69 817.019 102 807.782 102H630.934C621.697 102 612.843 105.69 606.339 112.25C599.836 118.81 590.981 122.5 581.744 122.5Z" stroke="#2A2A2A"/>
</g>
<defs>
<filter id="filter0_dddd_645_386" x="-29.5" y="0.5" width="1499" height="191" filterUnits="userSpaceOnUse" color-interpolation-filters="sRGB">
<feFlood flood-opacity="0" result="BackgroundImageFix"/>
<feColorMatrix in="SourceAlpha" type="matrix" values="0 0 0 0 0 0 0 0 0 0 0 0 0 0 0 0 0 0 127 0" result="hardAlpha"/>
<feOffset dy="-4"/>
<feGaussianBlur stdDeviation="5"/>
<feColorMatrix type="matrix" values="0 0 0 0 0.2 0 0 0 0 0.184314 0 0 0 0 0.415686 0 0 0 0.1 0"/>
<feBlend mode="normal" in2="BackgroundImageFix" result="effect1_dropShadow_645_386"/>
<feColorMatrix in="SourceAlpha" type="matrix" values="0 0 0 0 0 0 0 0 0 0 0 0 0 0 0 0 0 0 127 0" result="hardAlpha"/>
<feOffset dy="-18"/>
<feGaussianBlur stdDeviation="9"/>
<feColorMatrix type="matrix" values="0 0 0 0 0.2 0 0 0 0 0.184314 0 0 0 0 0.415686 0 0 0 0.09 0"/>
<feBlend mode="normal" in2="effect1_dropShadow_645_386" result="effect2_dropShadow_645_386"/>
<feColorMatrix in="SourceAlpha" type="matrix" values="0 0 0 0 0 0 0 0 0 0 0 0 0 0 0 0 0 0 127 0" result="hardAlpha"/>
<feOffset dy="-40"/>
<feGaussianBlur stdDeviation="12"/>
<feColorMatrix type="matrix" values="0 0 0 0 0.2 0 0 0 0 0.184314 0 0 0 0 0.415686 0 0 0 0.05 0"/>
<feBlend mode="normal" in2="effect2_dropShadow_645_386" result="effect3_dropShadow_645_386"/>
<feColorMatrix in="SourceAlpha" type="matrix" values="0 0 0 0 0 0 0 0 0 0 0 0 0 0 0 0 0 0 127 0" result="hardAlpha"/>
<feOffset dy="-72"/>
<feGaussianBlur stdDeviation="14.5"/>
<feColorMatrix type="matrix" values="0 0 0 0 0.2 0 0 0 0 0.184314 0 0 0 0 0.415686 0 0 0 0.01 0"/>
<feBlend mode="normal" in2="effect3_dropShadow_645_386" result="effect4_dropShadow_645_386"/>
<feBlend mode="normal" in="SourceGraphic" in2="effect4_dropShadow_645_386" result="shape"/>
</filter>
</defs>
</svg>
