<svg width="99" height="99" viewBox="0 0 99 99" fill="none" xmlns="http://www.w3.org/2000/svg">
<g filter="url(#filter0_di_642_316)">
<rect x="10" y="10" width="79" height="79" rx="10" fill="url(#paint0_linear_642_316)"/>
<rect x="10.5" y="10.5" width="78" height="78" rx="9.5" stroke="url(#paint1_linear_642_316)"/>
</g>
<path fill-rule="evenodd" clip-rule="evenodd" d="M68.0828 38C68.3825 38 68.67 38.1249 68.882 38.3472C69.0939 38.5695 69.213 38.871 69.213 39.1853V41.0629H70.7726C71.3721 41.0629 71.947 41.3127 72.3709 41.7573C72.7948 42.2019 73.0329 42.8049 73.0329 43.4336V45.071H74.8698C75.1696 45.071 75.457 45.1959 75.669 45.4182C75.8809 45.6405 76 45.9419 76 46.2563C76 46.5707 75.8809 46.8722 75.669 47.0945C75.457 47.3168 75.1696 47.4417 74.8698 47.4417H73.0314V50.492H74.8698C75.1696 50.492 75.457 50.6168 75.669 50.8391C75.8809 51.0614 76 51.3629 76 51.6773C76 51.9917 75.8809 52.2932 75.669 52.5155C75.457 52.7378 75.1696 52.8626 74.8698 52.8626H73.0314V54.4953C73.0314 55.124 72.7933 55.727 72.3694 56.1716C71.9455 56.6162 71.3706 56.8659 70.7711 56.8659H69.2145V58.8147C69.2145 59.129 69.0954 59.4305 68.8835 59.6528C68.6715 59.8751 68.3841 60 68.0843 60C67.7846 60 67.4971 59.8751 67.2852 59.6528C67.0732 59.4305 66.9541 59.129 66.9541 58.8147V56.8659H64.0459V58.8147C64.0459 59.129 63.9268 59.4305 63.7148 59.6528C63.5029 59.8751 63.2154 60 62.9157 60C62.6159 60 62.3285 59.8751 62.1165 59.6528C61.9046 59.4305 61.7855 59.129 61.7855 58.8147V56.8659H60.2259C59.6264 56.8659 59.0515 56.6162 58.6276 56.1716C58.2037 55.727 57.9656 55.124 57.9656 54.4953V52.8611H56.1302C55.8304 52.8611 55.543 52.7362 55.331 52.5139C55.1191 52.2916 55 51.9901 55 51.6757C55 51.3613 55.1191 51.0598 55.331 50.8376C55.543 50.6153 55.8304 50.4904 56.1302 50.4904H57.9656V47.4401H56.1302C55.8304 47.4401 55.543 47.3152 55.331 47.0929C55.1191 46.8706 55 46.5691 55 46.2547C55 45.9404 55.1191 45.6389 55.331 45.4166C55.543 45.1943 55.8304 45.0694 56.1302 45.0694H57.9656V43.4352C57.9656 42.8065 58.2037 42.2035 58.6276 41.7589C59.0515 41.3143 59.6264 41.0645 60.2259 41.0645H61.7855V39.1853C61.7855 38.871 61.9046 38.5695 62.1165 38.3472C62.3285 38.1249 62.6159 38 62.9157 38C63.2154 38 63.5029 38.1249 63.7148 38.3472C63.9268 38.5695 64.0459 38.871 64.0459 39.1853V41.0629H66.9541V39.1853C66.9541 38.871 67.0732 38.5695 67.2852 38.3472C67.4971 38.1249 67.7846 38 68.0843 38H68.0828ZM64.3593 45.1563C64.6245 43.8856 66.3484 43.8777 66.6241 45.1468L66.6362 45.2022L66.6603 45.3128C66.8027 45.9441 67.1183 46.5179 67.5682 46.9631C68.0182 47.4083 68.5827 47.7055 69.1919 47.8178C70.4577 48.0486 70.4577 49.9514 69.1919 50.1822C68.5791 50.2953 68.0117 50.5953 67.5606 51.0448C67.1095 51.4943 66.7948 52.0733 66.6558 52.7093L66.6241 52.8532C66.3484 54.1223 64.6245 54.1128 64.3593 52.8437L64.3322 52.7188C64.1993 52.0802 63.8879 51.4976 63.4378 51.0454C62.9876 50.5933 62.4192 50.2922 61.8051 50.1806C60.5423 49.9499 60.5423 48.0501 61.8051 47.8194C62.4171 47.7081 62.9837 47.4086 63.4331 46.9589C63.8825 46.5093 64.1944 45.9297 64.3291 45.2938L64.3487 45.2037L64.3593 45.1563Z" fill="white"/>
<path d="M24 40H26.8958V55.5706H35.5564V58.4111H24V40Z" fill="white"/>
<path d="M31.227 40H34.1228V44.2609H35.5439V47.0751H36.9918V51.336H38.4397V54.1503H41.3355V51.336H42.7566V47.0751H44.2045V44.2609H45.6524V40H48.5482V44.2609H47.1003V47.0751H45.6524V51.336H44.2045V54.1503H42.7834V56.9909H41.3355V58.4111H38.4397V56.9909H36.9918V54.1503H35.5439V51.336H34.096V47.0751H32.6749V44.2609H31.227V40Z" fill="white"/>
<defs>
<filter id="filter0_di_642_316" x="0" y="0" width="99" height="99" filterUnits="userSpaceOnUse" color-interpolation-filters="sRGB">
<feFlood flood-opacity="0" result="BackgroundImageFix"/>
<feColorMatrix in="SourceAlpha" type="matrix" values="0 0 0 0 0 0 0 0 0 0 0 0 0 0 0 0 0 0 127 0" result="hardAlpha"/>
<feOffset/>
<feGaussianBlur stdDeviation="5"/>
<feComposite in2="hardAlpha" operator="out"/>
<feColorMatrix type="matrix" values="0 0 0 0 0.467741 0 0 0 0 0.467741 0 0 0 0 0.467741 0 0 0 0.28 0"/>
<feBlend mode="normal" in2="BackgroundImageFix" result="effect1_dropShadow_642_316"/>
<feBlend mode="normal" in="SourceGraphic" in2="effect1_dropShadow_642_316" result="shape"/>
<feColorMatrix in="SourceAlpha" type="matrix" values="0 0 0 0 0 0 0 0 0 0 0 0 0 0 0 0 0 0 127 0" result="hardAlpha"/>
<feMorphology radius="2" operator="erode" in="SourceAlpha" result="effect2_innerShadow_642_316"/>
<feOffset/>
<feGaussianBlur stdDeviation="6"/>
<feComposite in2="hardAlpha" operator="arithmetic" k2="-1" k3="1"/>
<feColorMatrix type="matrix" values="0 0 0 0 0 0 0 0 0 0 0 0 0 0 0 0 0 0 1 0"/>
<feBlend mode="normal" in2="shape" result="effect2_innerShadow_642_316"/>
</filter>
<linearGradient id="paint0_linear_642_316" x1="80" y1="89" x2="9.99999" y2="19" gradientUnits="userSpaceOnUse">
<stop/>
<stop offset="0.495" stop-color="#242424"/>
<stop offset="1"/>
</linearGradient>
<linearGradient id="paint1_linear_642_316" x1="50" y1="100" x2="50" y2="5" gradientUnits="userSpaceOnUse">
<stop stop-color="#1E1E1E"/>
<stop offset="1" stop-color="#707070"/>
</linearGradient>
</defs>
</svg>
