<svg width="14" height="14" viewBox="0 0 14 14" fill="none" xmlns="http://www.w3.org/2000/svg">
<path d="M5.88334 1.87754C6.16716 0.707485 7.83284 0.707485 8.11666 1.87754C8.15928 2.05342 8.24282 2.21676 8.36048 2.35426C8.47814 2.49176 8.6266 2.59954 8.79378 2.66883C8.96096 2.73813 9.14214 2.76697 9.32257 2.75303C9.503 2.73908 9.67759 2.68274 9.83214 2.58858C10.8606 1.96155 12.0391 3.13941 11.412 4.16846C11.318 4.32295 11.2617 4.49744 11.2478 4.67777C11.2339 4.85809 11.2627 5.03915 11.3319 5.20624C11.4011 5.37333 11.5088 5.52173 11.6462 5.63938C11.7835 5.75703 11.9467 5.84062 12.1225 5.88334C13.2925 6.16716 13.2925 7.83284 12.1225 8.11666C11.9466 8.15928 11.7832 8.24282 11.6457 8.36048C11.5082 8.47814 11.4005 8.6266 11.3312 8.79378C11.2619 8.96096 11.233 9.14214 11.247 9.32257C11.2609 9.503 11.3173 9.67759 11.4114 9.83214C12.0385 10.8606 10.8606 12.0391 9.83154 11.412C9.67705 11.318 9.50256 11.2617 9.32223 11.2478C9.14191 11.2339 8.96085 11.2627 8.79376 11.3319C8.62667 11.4011 8.47827 11.5088 8.36062 11.6462C8.24297 11.7835 8.15938 11.9467 8.11666 12.1225C7.83284 13.2925 6.16716 13.2925 5.88334 12.1225C5.84072 11.9466 5.75718 11.7832 5.63952 11.6457C5.52186 11.5082 5.3734 11.4005 5.20622 11.3312C5.03904 11.2619 4.85786 11.233 4.67743 11.247C4.497 11.2609 4.32241 11.3173 4.16786 11.4114C3.13941 12.0385 1.96095 10.8606 2.58798 9.83154C2.68202 9.67705 2.73828 9.50256 2.7522 9.32223C2.76611 9.14191 2.73729 8.96085 2.66807 8.79376C2.59885 8.62667 2.49118 8.47827 2.35382 8.36062C2.21646 8.24297 2.05328 8.15938 1.87754 8.11666C0.707485 7.83284 0.707485 6.16716 1.87754 5.88334C2.05342 5.84072 2.21676 5.75718 2.35426 5.63952C2.49176 5.52186 2.59954 5.3734 2.66883 5.20622C2.73813 5.03904 2.76697 4.85786 2.75303 4.67743C2.73908 4.497 2.68274 4.32241 2.58858 4.16786C1.96155 3.13941 3.13941 1.96095 4.16846 2.58798C4.32289 2.68229 4.49742 2.73877 4.67782 2.75282C4.85822 2.76687 5.03939 2.7381 5.20656 2.66884C5.37373 2.59959 5.52217 2.49181 5.63978 2.3543C5.75739 2.21679 5.84085 2.05343 5.88334 1.87754Z" stroke="#0F5CFF" stroke-linecap="round" stroke-linejoin="round"/>
<path d="M4.59961 6.99973H8.19979C8.51807 6.99973 8.8233 6.87329 9.04836 6.64824C9.27341 6.42318 9.39985 6.11795 9.39985 5.79967C9.39985 5.48139 9.27341 5.17615 9.04836 4.9511C8.8233 4.72604 8.51807 4.59961 8.19979 4.59961H4.59961V9.39985V6.99973Z" stroke="#0F5CFF" stroke-linecap="round" stroke-linejoin="round"/>
<path d="M11.2002 9.39985H10.0002C9.68189 9.39985 9.37665 9.27341 9.15159 9.04836C8.92654 8.8233 8.8001 8.51807 8.8001 8.19979C8.8001 7.88151 8.67367 7.57627 8.44861 7.35122C8.22356 7.12616 7.91832 6.99973 7.60004 6.99973H7.00001M5.19992 4.59961H2.7998M2.7998 9.39985H5.19992" stroke="#0F5CFF" stroke-linecap="round" stroke-linejoin="round"/>
</svg>
