<svg width="12" height="14" viewBox="0 0 12 14" fill="none" xmlns="http://www.w3.org/2000/svg">
<path d="M7.62944 0.5C7.94011 0.5 8.12853 0.842827 7.96199 1.10509L6.10359 4.03183C6.03132 4.14565 5.90586 4.2146 5.77104 4.2146H1.98995C1.67933 4.2146 1.49091 3.87188 1.65733 3.60961L3.51445 0.682872C3.58671 0.568995 3.7122 0.5 3.84707 0.5H7.62944Z" stroke="#0F5CFF" stroke-width="0.8"/>
<path d="M5.87089 4.03173C5.94315 4.1456 6.06865 4.2146 6.20351 4.2146H9.98618C10.2968 4.2146 10.4852 3.87188 10.3188 3.6096L8.46165 0.68287C8.38939 0.568994 8.2639 0.5 8.12903 0.5H4.34639C4.03577 0.5 3.84735 0.842718 4.01377 1.10499L5.87089 4.03173Z" stroke="#0F5CFF" stroke-width="0.8"/>
<path d="M3.2979 7.40385C3.45263 7.6476 3.80834 7.6476 3.96307 7.40385L5.85355 4.42567C5.93534 4.29684 5.93535 4.13235 5.85359 4.0035L3.96311 1.02419C3.80839 0.780363 3.45259 0.780363 3.29787 1.02419L1.40739 4.0035C1.32563 4.13235 1.32564 4.29684 1.40742 4.42567L3.2979 7.40385Z" stroke="#0F5CFF" stroke-width="0.8"/>
<path d="M4.37009 13.5003C4.05942 13.5003 3.871 13.1574 4.03754 12.8952L5.89594 9.96841C5.96821 9.8546 6.09367 9.78564 6.2285 9.78564H10.011C10.3217 9.78564 10.5101 10.1285 10.3435 10.3907L8.4851 13.3175C8.41283 13.4313 8.28737 13.5003 8.15255 13.5003H4.37009Z" stroke="#0F5CFF" stroke-width="0.8"/>
<path d="M6.1277 9.96852C6.05544 9.85464 5.92995 9.78564 5.79508 9.78564H2.0124C1.70179 9.78564 1.51336 10.1284 1.67978 10.3906L3.53691 13.3174C3.60917 13.4313 3.73466 13.5003 3.86953 13.5003H7.65221C7.96282 13.5003 8.15125 13.1576 7.98483 12.8953L6.1277 9.96852Z" stroke="#0F5CFF" stroke-width="0.8"/>
<path d="M8.7014 6.59591C8.54662 6.35225 8.191 6.35231 8.0363 6.59601L6.14571 9.57435C6.06392 9.70319 6.06391 9.86767 6.14567 9.99652L7.19024 11.6427L8.03627 12.976C8.19095 13.2198 8.54667 13.2199 8.70144 12.9761L10.5934 9.99663C10.6752 9.86773 10.6752 9.70313 10.5933 9.57424L8.7014 6.59591Z" stroke="#0F5CFF" stroke-width="0.8"/>
</svg>
